<svg xmlns="http://www.w3.org/2000/svg" xmlns:xlink="http://www.w3.org/1999/xlink" width="1920" zoomAndPan="magnify" viewBox="0 0 1440 809.999993" height="1080" preserveAspectRatio="xMidYMid meet" version="1.0"><defs><clipPath id="782c6d34cd"><path d="M 446 64 L 998 64 L 998 747.128906 L 446 747.128906 Z M 446 64 " clip-rule="nonzero"/></clipPath></defs><g clip-path="url(#782c6d34cd)"><path fill="#ffffff" d="M 710.386719 595.328125 L 733.496094 595.328125 L 743.929688 642.824219 L 721.972656 695.539062 L 700.011719 642.824219 Z M 853.789062 578.523438 C 872.046875 578.101562 887.210938 592.660156 887.574219 610.980469 C 887.574219 611.28125 887.574219 611.644531 887.574219 611.949219 C 887.636719 630.207031 872.894531 645.128906 854.636719 645.253906 C 836.316406 645.3125 821.394531 630.570312 821.332031 612.253906 C 821.332031 612.132812 821.332031 612.070312 821.332031 611.949219 C 821.152344 593.8125 835.648438 578.890625 853.789062 578.523438 Z M 760.671875 568.878906 L 772.5625 573.914062 L 751.332031 624.75 L 743.929688 591.019531 Z M 683.269531 568.878906 L 699.585938 591.019531 L 692.1875 624.75 L 671.015625 573.914062 Z M 721.972656 552.683594 L 749.875 564.390625 L 735.316406 584.105469 L 708.566406 584.105469 L 693.644531 564.390625 Z M 801.195312 505.1875 L 777.050781 563.542969 L 734.226562 545.707031 Z M 642.324219 505.1875 L 709.65625 545.707031 L 666.890625 563.542969 Z M 627.402344 498.453125 L 714.144531 706.09375 C 715.90625 710.402344 720.820312 712.464844 725.125 710.703125 C 727.25 709.796875 728.886719 708.15625 729.734375 706.09375 L 816.480469 498.453125 L 848.8125 508.824219 L 848.8125 568.03125 C 824.609375 571.125 807.441406 593.265625 810.535156 617.53125 C 813.628906 641.734375 835.769531 658.902344 860.035156 655.808594 C 884.300781 652.714844 901.40625 630.570312 898.3125 606.308594 C 895.765625 586.351562 880.054688 570.578125 860.035156 568.03125 L 860.035156 512.464844 L 925.851562 533.636719 C 943.566406 539.339844 956.730469 554.320312 960.125 572.640625 L 985.421875 709.550781 C 987.664062 721.746094 979.539062 733.511719 967.34375 735.699219 C 965.949219 735.941406 964.492188 736.121094 963.097656 736.121094 L 480.421875 736.121094 C 467.984375 736 457.976562 725.808594 458.097656 713.375 C 458.097656 712.101562 458.21875 710.765625 458.460938 709.492188 L 483.757812 572.582031 C 487.152344 554.320312 500.316406 539.339844 517.96875 533.574219 L 583.847656 512.464844 L 583.847656 540.066406 C 566.863281 542.371094 553.03125 555.050781 549.269531 571.792969 L 529.917969 657.203125 C 528.585938 662.964844 530.101562 669.03125 534.042969 673.519531 C 539.019531 679.039062 545.449219 683.105469 552.605469 685.167969 C 554.789062 691.535156 561.644531 694.992188 568.074219 692.808594 C 574.445312 690.6875 577.839844 683.773438 575.71875 677.402344 C 573.59375 671.03125 566.679688 667.574219 560.308594 669.757812 C 558.003906 670.488281 556.003906 671.941406 554.488281 673.882812 C 549.9375 672.308594 545.875 669.515625 542.597656 665.996094 C 540.960938 664.300781 540.292969 661.933594 540.71875 659.6875 L 560.066406 574.277344 C 563.769531 558.144531 579.84375 548.011719 595.980469 551.714844 C 607.203125 554.320312 615.9375 563.054688 618.484375 574.277344 L 638.199219 659.6875 C 638.683594 661.933594 637.957031 664.300781 636.320312 665.996094 C 633.101562 669.515625 629.039062 672.308594 624.429688 673.882812 C 620.363281 668.546875 612.722656 667.515625 607.382812 671.640625 C 602.046875 675.703125 601.015625 683.347656 605.140625 688.683594 C 609.203125 694.023438 616.847656 695.054688 622.183594 690.929688 C 624.125 689.472656 625.582031 687.472656 626.308594 685.167969 C 633.46875 683.105469 639.957031 679.039062 644.933594 673.519531 C 648.875 669.03125 650.390625 662.964844 648.996094 657.203125 L 629.644531 571.792969 C 625.886719 555.050781 612.113281 542.371094 595.070312 540.066406 L 595.070312 508.824219 Z M 665.375 446.769531 C 675.625 453.746094 687.699219 457.445312 700.011719 457.445312 L 743.566406 457.445312 C 756.003906 457.507812 768.195312 453.746094 778.507812 446.769531 L 778.507812 468.851562 C 778.507812 479.953125 783.058594 490.628906 791.1875 498.210938 L 721.972656 540.003906 L 652.757812 498.210938 C 660.824219 490.628906 665.4375 479.953125 665.375 468.851562 Z M 794.886719 433 C 826.066406 438.214844 848.875 465.210938 848.875 496.816406 L 848.875 497.058594 L 817.210938 486.925781 C 814.117188 485.894531 810.71875 486.320312 807.929688 488.019531 L 801.558594 492.023438 C 794.15625 486.625 789.730469 478.011719 789.667969 468.851562 L 789.667969 437.550781 C 791.429688 436.03125 793.1875 434.515625 794.886719 433 Z M 648.996094 433 C 650.753906 434.515625 652.453125 436.09375 654.214844 437.550781 L 654.214844 468.851562 C 654.152344 478.011719 649.785156 486.683594 642.324219 492.023438 L 635.589844 488.019531 C 632.800781 486.320312 629.464844 485.894531 626.371094 486.867188 L 595.070312 496.996094 L 595.070312 496.753906 C 595.070312 465.210938 617.878906 438.214844 649.058594 433 Z M 869.679688 251.503906 C 871.5625 251.503906 873.257812 252.777344 873.746094 254.535156 C 876.535156 264.910156 876.777344 275.765625 874.535156 286.261719 C 873.320312 295.542969 868.164062 303.792969 860.398438 308.886719 L 860.398438 258.054688 C 862.402344 255.324219 865.070312 253.140625 868.164062 251.804688 C 868.648438 251.625 869.195312 251.5625 869.742188 251.503906 Z M 573.65625 251.320312 C 574.382812 251.320312 575.050781 251.503906 575.65625 251.804688 C 578.691406 253.203125 581.238281 255.386719 583.117188 258.054688 L 583.117188 308.886719 C 575.355469 303.730469 570.199219 295.480469 568.984375 286.261719 C 566.742188 275.765625 566.984375 264.910156 569.714844 254.535156 C 570.199219 252.714844 571.777344 251.441406 573.65625 251.320312 Z M 616.238281 153.230469 C 679.386719 187.382812 752.121094 199.273438 822.789062 186.839844 C 835.042969 184.65625 846.691406 192.78125 848.933594 204.976562 C 849.117188 206.308594 849.238281 207.644531 849.238281 208.980469 L 849.238281 340.492188 C 849.238281 352.625 844.929688 364.332031 836.984375 373.492188 C 818.363281 395.085938 798.222656 415.226562 776.6875 433.910156 C 767.46875 441.855469 755.699219 446.164062 743.566406 446.164062 L 700.011719 446.164062 C 687.878906 446.164062 676.113281 441.855469 666.890625 433.910156 C 645.476562 415.226562 625.460938 395.085938 606.957031 373.492188 C 599.074219 364.332031 594.707031 352.625 594.707031 340.492188 L 594.707031 205.945312 C 595.25 205.402344 595.738281 204.792969 596.222656 204.1875 C 608.171875 189.75 615.148438 171.914062 616.238281 153.230469 Z M 736.953125 64.121094 C 690.972656 63.210938 646.085938 77.890625 609.566406 105.796875 C 585.363281 105.371094 564.980469 123.628906 562.675781 147.710938 C 560.007812 165.0625 561.765625 182.835938 567.894531 199.273438 C 570.257812 205.765625 576.324219 210.070312 583.179688 210.191406 L 583.179688 243.070312 C 582.210938 242.523438 581.238281 241.980469 580.207031 241.554688 C 572.382812 238.097656 563.28125 241.613281 559.824219 249.378906 C 559.460938 250.109375 559.21875 250.894531 558.976562 251.625 C 555.882812 263.574219 555.640625 276.132812 558.25 288.203125 C 560.25 302.882812 569.714844 315.5 583.179688 321.6875 L 583.179688 340.492188 C 583.242188 355.355469 588.640625 369.671875 598.40625 380.832031 C 611.203125 395.816406 624.792969 410.128906 638.988281 423.71875 C 606.351562 433.058594 583.90625 462.84375 583.90625 496.753906 L 583.90625 500.636719 L 514.695312 522.898438 C 492.976562 529.816406 476.78125 548.132812 472.59375 570.578125 L 447.300781 707.429688 C 443.964844 725.808594 456.035156 743.402344 474.414062 746.738281 C 476.355469 747.164062 478.417969 747.34375 480.421875 747.34375 L 963.097656 747.34375 C 981.78125 747.527344 997.007812 732.542969 997.191406 713.859375 C 997.191406 711.734375 997.007812 709.550781 996.582031 707.429688 L 971.289062 570.578125 C 967.164062 548.132812 950.964844 529.816406 929.25 522.898438 L 860.035156 500.636719 L 860.035156 496.753906 C 860.035156 462.722656 837.347656 432.878906 804.589844 423.71875 C 818.90625 410.128906 832.617188 395.816406 845.539062 380.832031 C 855.183594 369.609375 860.460938 355.292969 860.398438 340.492188 L 860.398438 321.6875 C 874.046875 315.621094 883.632812 302.941406 885.695312 288.203125 C 888.304688 276.132812 888.0625 263.574219 884.96875 251.625 C 882.84375 243.375 874.414062 238.398438 866.101562 240.523438 C 865.191406 240.765625 864.222656 241.128906 863.371094 241.554688 C 862.339844 241.980469 861.371094 242.523438 860.398438 243.070312 L 860.398438 233 C 869.863281 227.964844 876.535156 218.929688 878.597656 208.433594 C 883.027344 183.867188 881.570312 158.570312 874.472656 134.671875 C 870.53125 121.445312 862.28125 109.921875 851.058594 101.914062 C 817.695312 78.132812 777.960938 64.910156 736.953125 64.121094 " fill-opacity="1" fill-rule="nonzero"/></g></svg>