<svg xmlns="http://www.w3.org/2000/svg" xmlns:xlink="http://www.w3.org/1999/xlink" width="1920" zoomAndPan="magnify" viewBox="0 0 1440 809.999993" height="1080" preserveAspectRatio="xMidYMid meet" version="1.0"><defs><clipPath id="eda9b71fc0"><path d="M 494.535156 146 L 945 146 L 945 747 L 494.535156 747 Z M 494.535156 146 " clip-rule="nonzero"/></clipPath></defs><g clip-path="url(#eda9b71fc0)"><path fill="#ffffff" d="M 526.566406 156.246094 C 514.003906 156.246094 503.78125 166.46875 503.78125 179.03125 L 503.78125 714.21875 C 503.78125 726.78125 514.003906 737.003906 526.566406 737.003906 L 912.804688 737.003906 C 925.359375 737.003906 935.570312 726.78125 935.570312 714.21875 L 935.570312 179.03125 C 935.570312 166.46875 925.359375 156.246094 912.804688 156.246094 Z M 912.804688 746.273438 L 526.566406 746.273438 C 508.886719 746.273438 494.511719 731.898438 494.511719 714.21875 L 494.511719 179.03125 C 494.511719 161.351562 508.886719 146.976562 526.566406 146.976562 L 912.804688 146.976562 C 930.472656 146.976562 944.839844 161.351562 944.839844 179.03125 L 944.839844 714.21875 C 944.839844 731.898438 930.472656 746.273438 912.804688 746.273438 " fill-opacity="1" fill-rule="nonzero"/></g><path fill="#ffffff" d="M 555.355469 175.59375 C 545.042969 175.59375 536.660156 184.601562 536.660156 195.671875 L 536.660156 678.226562 C 536.660156 689.304688 545.042969 698.3125 555.355469 698.3125 L 883.996094 698.3125 C 894.308594 698.3125 902.691406 689.304688 902.691406 678.226562 L 902.691406 195.671875 C 902.691406 184.601562 894.308594 175.59375 883.996094 175.59375 Z M 883.996094 707.582031 L 555.355469 707.582031 C 539.9375 707.582031 527.390625 694.421875 527.390625 678.226562 L 527.390625 195.671875 C 527.390625 179.484375 539.9375 166.324219 555.355469 166.324219 L 883.996094 166.324219 C 899.421875 166.324219 911.960938 179.484375 911.960938 195.671875 L 911.960938 678.226562 C 911.960938 694.421875 899.421875 707.582031 883.996094 707.582031 " fill-opacity="1" fill-rule="nonzero"/><path fill="#ffffff" d="M 719.675781 217.46875 C 679.808594 217.46875 647.363281 249.914062 647.363281 289.789062 C 647.363281 329.667969 679.808594 362.109375 719.675781 362.109375 C 759.5625 362.109375 791.996094 329.667969 791.996094 289.789062 C 791.996094 249.914062 759.5625 217.46875 719.675781 217.46875 Z M 719.675781 371.382812 C 674.695312 371.382812 638.09375 334.78125 638.09375 289.789062 C 638.09375 244.800781 674.695312 208.199219 719.675781 208.199219 C 764.667969 208.199219 801.265625 244.800781 801.265625 289.789062 C 801.265625 334.78125 764.667969 371.382812 719.675781 371.382812 " fill-opacity="1" fill-rule="nonzero"/><path fill="#ffffff" d="M 709.4375 332.664062 L 729.925781 332.664062 L 729.925781 318.820312 C 729.925781 317.082031 730.894531 315.492188 732.441406 314.695312 C 733.996094 313.90625 735.851562 314.042969 737.265625 315.054688 L 748.5 323.148438 L 760.46875 306.519531 L 742.988281 293.945312 C 741.746094 293.058594 741.03125 291.628906 741.058594 290.105469 C 741.078125 288.59375 741.835938 287.183594 743.09375 286.339844 L 760.945312 274.292969 L 749.488281 257.320312 L 737.148438 265.636719 C 735.726562 266.597656 733.890625 266.699219 732.378906 265.890625 C 730.867188 265.085938 729.925781 263.511719 729.925781 261.800781 L 729.925781 246.917969 L 709.4375 246.917969 L 709.4375 260.757812 C 709.4375 262.496094 708.460938 264.089844 706.914062 264.878906 C 705.355469 265.675781 703.5 265.53125 702.097656 264.515625 L 690.863281 256.433594 L 678.894531 273.0625 L 696.375 285.636719 C 697.605469 286.523438 698.320312 287.953125 698.304688 289.464844 C 698.285156 290.984375 697.515625 292.386719 696.257812 293.238281 L 678.414062 305.289062 L 689.875 322.261719 L 702.207031 313.933594 C 703.625 312.972656 705.464844 312.882812 706.976562 313.6875 C 708.488281 314.484375 709.4375 316.0625 709.4375 317.78125 Z M 734.558594 341.933594 L 704.804688 341.933594 C 702.242188 341.933594 700.167969 339.859375 700.167969 337.296875 L 700.167969 326.5 L 691.214844 332.535156 C 690.203125 333.222656 688.941406 333.476562 687.738281 333.25 C 686.535156 333.015625 685.46875 332.308594 684.777344 331.289062 L 668.140625 306.628906 C 666.710938 304.511719 667.269531 301.621094 669.390625 300.191406 L 685.566406 289.273438 L 669.726562 277.878906 C 668.730469 277.164062 668.050781 276.074219 667.859375 274.863281 C 667.660156 273.648438 667.949219 272.410156 668.664062 271.40625 L 686.046875 247.261719 C 687.539062 245.179688 690.4375 244.707031 692.519531 246.203125 L 700.167969 251.707031 L 700.167969 242.28125 C 700.167969 239.722656 702.242188 237.648438 704.804688 237.648438 L 734.558594 237.648438 C 737.113281 237.648438 739.195312 239.722656 739.195312 242.28125 L 739.195312 253.082031 L 748.136719 247.042969 C 750.265625 245.605469 753.144531 246.167969 754.574219 248.292969 L 771.210938 272.945312 C 772.652344 275.070312 772.089844 277.949219 769.972656 279.378906 L 753.796875 290.296875 L 769.636719 301.703125 C 771.71875 303.199219 772.191406 306.09375 770.695312 308.175781 L 753.316406 332.320312 C 752.601562 333.324219 751.515625 333.992188 750.300781 334.191406 C 749.089844 334.382812 747.847656 334.09375 746.851562 333.378906 L 739.195312 327.867188 L 739.195312 337.296875 C 739.195312 339.859375 737.113281 341.933594 734.558594 341.933594 " fill-opacity="1" fill-rule="nonzero"/><path fill="#ffffff" d="M 576.039062 432.882812 C 573.53125 432.882812 571.488281 434.929688 571.488281 437.4375 C 571.488281 439.945312 573.53125 441.992188 576.039062 441.992188 L 863.3125 441.992188 C 865.828125 441.992188 867.875 439.945312 867.875 437.4375 C 867.875 434.929688 865.828125 432.882812 863.3125 432.882812 Z M 863.3125 451.261719 L 576.039062 451.261719 C 568.417969 451.261719 562.21875 445.058594 562.21875 437.4375 C 562.21875 429.816406 568.417969 423.613281 576.039062 423.613281 L 863.3125 423.613281 C 870.945312 423.613281 877.144531 429.816406 877.144531 437.4375 C 877.144531 445.058594 870.945312 451.261719 863.3125 451.261719 " fill-opacity="1" fill-rule="nonzero"/><path fill="#ffffff" d="M 576.039062 475.441406 C 573.53125 475.441406 571.488281 477.484375 571.488281 479.992188 C 571.488281 482.511719 573.53125 484.546875 576.039062 484.546875 L 863.3125 484.546875 C 865.828125 484.546875 867.875 482.511719 867.875 479.992188 C 867.875 477.484375 865.828125 475.441406 863.3125 475.441406 Z M 863.3125 493.816406 L 576.039062 493.816406 C 568.417969 493.816406 562.21875 487.617188 562.21875 479.992188 C 562.21875 472.371094 568.417969 466.171875 576.039062 466.171875 L 863.3125 466.171875 C 870.945312 466.171875 877.144531 472.371094 877.144531 479.992188 C 877.144531 487.617188 870.945312 493.816406 863.3125 493.816406 " fill-opacity="1" fill-rule="nonzero"/><path fill="#ffffff" d="M 576.039062 517.996094 C 573.53125 517.996094 571.488281 520.042969 571.488281 522.558594 C 571.488281 525.066406 573.53125 527.113281 576.039062 527.113281 L 863.3125 527.113281 C 865.828125 527.113281 867.875 525.066406 867.875 522.558594 C 867.875 520.042969 865.828125 517.996094 863.3125 517.996094 Z M 863.3125 536.382812 L 576.039062 536.382812 C 568.417969 536.382812 562.21875 530.179688 562.21875 522.558594 C 562.21875 514.925781 568.417969 508.726562 576.039062 508.726562 L 863.3125 508.726562 C 870.945312 508.726562 877.144531 514.925781 877.144531 522.558594 C 877.144531 530.179688 870.945312 536.382812 863.3125 536.382812 " fill-opacity="1" fill-rule="nonzero"/><path fill="#ffffff" d="M 576.039062 560.5625 C 573.53125 560.5625 571.488281 562.605469 571.488281 565.113281 C 571.488281 567.628906 573.53125 569.667969 576.039062 569.667969 L 863.3125 569.667969 C 865.828125 569.667969 867.875 567.628906 867.875 565.113281 C 867.875 562.605469 865.828125 560.5625 863.3125 560.5625 Z M 863.3125 578.9375 L 576.039062 578.9375 C 568.417969 578.9375 562.21875 572.734375 562.21875 565.113281 C 562.21875 557.492188 568.417969 551.289062 576.039062 551.289062 L 863.3125 551.289062 C 870.945312 551.289062 877.144531 557.492188 877.144531 565.113281 C 877.144531 572.734375 870.945312 578.9375 863.3125 578.9375 " fill-opacity="1" fill-rule="nonzero"/><path fill="#ffffff" d="M 576.039062 603.117188 C 573.53125 603.117188 571.488281 605.164062 571.488281 607.671875 C 571.488281 610.1875 573.53125 612.234375 576.039062 612.234375 L 863.3125 612.234375 C 865.828125 612.234375 867.875 610.1875 867.875 607.671875 C 867.875 605.164062 865.828125 603.117188 863.3125 603.117188 Z M 863.3125 621.503906 L 576.039062 621.503906 C 568.417969 621.503906 562.21875 615.292969 562.21875 607.671875 C 562.21875 600.046875 568.417969 593.847656 576.039062 593.847656 L 863.3125 593.847656 C 870.945312 593.847656 877.144531 600.046875 877.144531 607.671875 C 877.144531 615.292969 870.945312 621.503906 863.3125 621.503906 " fill-opacity="1" fill-rule="nonzero"/><path fill="#ffffff" d="M 576.039062 645.671875 C 573.53125 645.671875 571.488281 647.71875 571.488281 650.234375 C 571.488281 652.742188 573.53125 654.789062 576.039062 654.789062 L 863.3125 654.789062 C 865.828125 654.789062 867.875 652.742188 867.875 650.234375 C 867.875 647.71875 865.828125 645.671875 863.3125 645.671875 Z M 863.3125 664.058594 L 576.039062 664.058594 C 568.417969 664.058594 562.21875 657.855469 562.21875 650.234375 C 562.21875 642.613281 568.417969 636.402344 576.039062 636.402344 L 863.3125 636.402344 C 870.945312 636.402344 877.144531 642.613281 877.144531 650.234375 C 877.144531 657.855469 870.945312 664.058594 863.3125 664.058594 " fill-opacity="1" fill-rule="nonzero"/><path fill="#ffffff" d="M 522.277344 736.597656 C 523.671875 736.867188 525.109375 737.003906 526.566406 737.003906 L 912.804688 737.003906 C 925.359375 737.003906 935.570312 726.78125 935.570312 714.21875 L 935.570312 179.03125 C 935.570312 175.484375 934.753906 172.0625 933.242188 169.003906 L 933.242188 704.550781 C 933.242188 722.21875 918.867188 736.597656 901.1875 736.597656 Z M 912.804688 746.273438 L 526.566406 746.273438 C 515.941406 746.273438 506.027344 741.023438 500.042969 732.222656 C 498.875 730.511719 498.992188 728.230469 500.316406 726.648438 C 501.636719 725.054688 503.855469 724.539062 505.746094 725.378906 C 508.679688 726.675781 511.777344 727.328125 514.953125 727.328125 L 901.1875 727.328125 C 913.753906 727.328125 923.972656 717.105469 923.972656 704.550781 L 923.972656 169.347656 C 923.972656 164.773438 922.617188 160.347656 920.046875 156.566406 C 918.878906 154.855469 918.996094 152.582031 920.316406 150.988281 C 921.636719 149.394531 923.867188 148.878906 925.757812 149.722656 C 937.355469 154.855469 944.839844 166.359375 944.839844 179.03125 L 944.839844 714.21875 C 944.839844 731.898438 930.472656 746.273438 912.804688 746.273438 " fill-opacity="1" fill-rule="nonzero"/><path fill="#ffffff" d="M 719.675781 88.027344 C 704.3125 88.027344 691.8125 100.519531 691.8125 115.890625 C 691.8125 131.261719 704.3125 143.765625 719.675781 143.765625 C 735.046875 143.765625 747.539062 131.261719 747.539062 115.890625 C 747.539062 100.519531 735.046875 88.027344 719.675781 88.027344 Z M 719.675781 153.035156 C 699.199219 153.035156 682.542969 136.367188 682.542969 115.890625 C 682.542969 95.414062 699.199219 78.757812 719.675781 78.757812 C 740.152344 78.757812 756.808594 95.414062 756.808594 115.890625 C 756.808594 136.367188 740.152344 153.035156 719.675781 153.035156 Z M 571.488281 185.660156 L 867.875 185.660156 L 867.875 159.054688 C 867.875 145.25 856.640625 134.023438 842.835938 134.023438 L 781.421875 134.023438 C 778.878906 134.023438 776.808594 131.96875 776.789062 129.433594 C 776.5 98.230469 750.878906 72.847656 719.675781 72.847656 C 688.480469 72.847656 662.863281 98.230469 662.574219 129.433594 C 662.546875 131.96875 660.480469 134.023438 657.9375 134.023438 L 596.527344 134.023438 C 582.710938 134.023438 571.488281 145.25 571.488281 159.054688 Z M 872.511719 194.929688 L 566.851562 194.929688 C 564.289062 194.929688 562.21875 192.855469 562.21875 190.292969 L 562.21875 159.054688 C 562.21875 140.144531 577.605469 124.753906 596.527344 124.753906 L 653.503906 124.753906 C 656.191406 90.625 684.960938 63.578125 719.675781 63.578125 C 754.402344 63.578125 783.171875 90.625 785.859375 124.753906 L 842.835938 124.753906 C 861.757812 124.753906 877.144531 140.144531 877.144531 159.054688 L 877.144531 190.292969 C 877.144531 192.855469 875.070312 194.929688 872.511719 194.929688 " fill-opacity="1" fill-rule="nonzero"/></svg>