<svg xmlns="http://www.w3.org/2000/svg" xmlns:xlink="http://www.w3.org/1999/xlink" width="1920" zoomAndPan="magnify" viewBox="0 0 1440 809.999993" height="1080" preserveAspectRatio="xMidYMid meet" version="1.0"><defs><clipPath id="7a7308fb76"><path d="M 545 68.859375 L 895 68.859375 L 895 401 L 545 401 Z M 545 68.859375 " clip-rule="nonzero"/></clipPath><clipPath id="5093a14615"><path d="M 473 670 L 967 670 L 967 741.050781 L 473 741.050781 Z M 473 670 " clip-rule="nonzero"/></clipPath></defs><path fill="#ffffff" d="M 719.699219 365.980469 L 676.398438 397.3125 C 676.636719 403.441406 676.554688 409.566406 676.15625 415.6875 C 675.753906 421.808594 675.039062 427.890625 674 433.9375 C 672.964844 439.984375 671.617188 445.960938 669.953125 451.863281 C 668.292969 457.769531 666.328125 463.570312 664.0625 469.269531 C 661.792969 474.96875 659.234375 480.535156 656.386719 485.964844 C 653.535156 491.398438 650.410156 496.667969 647.011719 501.773438 C 643.609375 506.878906 639.953125 511.792969 636.039062 516.515625 C 632.125 521.238281 627.976562 525.742188 623.589844 530.03125 L 815.453125 530.03125 C 811.066406 525.742188 806.917969 521.238281 803.003906 516.515625 C 799.089844 511.792969 795.433594 506.878906 792.03125 501.773438 C 788.632812 496.667969 785.507812 491.398438 782.65625 485.964844 C 779.808594 480.535156 777.25 474.96875 774.980469 469.269531 C 772.714844 463.570312 770.75 457.769531 769.089844 451.863281 C 767.429688 445.960938 766.078125 439.984375 765.042969 433.9375 C 764.007812 427.890625 763.289062 421.808594 762.886719 415.6875 C 762.488281 409.566406 762.40625 403.441406 762.648438 397.3125 Z M 719.699219 365.980469 " fill-opacity="1" fill-rule="nonzero"/><g clip-path="url(#7a7308fb76)"><path fill="#ffffff" d="M 649.289062 286.246094 L 636.96875 323.914062 L 631.863281 339.753906 L 611.972656 400.832031 L 631.6875 386.398438 L 649.289062 373.550781 L 666.890625 360.878906 L 676.398438 354.011719 L 700.511719 336.410156 L 709.3125 330.074219 C 710.0625 329.527344 710.847656 329.042969 711.675781 328.617188 C 712.5 328.195312 713.355469 327.839844 714.234375 327.550781 C 715.117188 327.265625 716.015625 327.046875 716.933594 326.902344 C 717.847656 326.757812 718.769531 326.683594 719.699219 326.683594 C 720.625 326.683594 721.546875 326.757812 722.464844 326.902344 C 723.378906 327.046875 724.277344 327.265625 725.160156 327.550781 C 726.042969 327.839844 726.894531 328.195312 727.722656 328.617188 C 728.546875 329.042969 729.335938 329.527344 730.082031 330.074219 L 738.882812 336.410156 L 763 354.011719 L 772.503906 360.878906 L 790.105469 373.550781 L 807.707031 386.398438 L 827.597656 400.832031 L 807.707031 339.753906 L 802.601562 323.914062 L 790.105469 286.246094 C 789.792969 285.339844 789.558594 284.417969 789.398438 283.472656 C 789.238281 282.53125 789.15625 281.582031 789.148438 280.625 C 789.144531 279.667969 789.214844 278.71875 789.363281 277.773438 C 789.511719 276.832031 789.738281 275.902344 790.035156 274.996094 C 790.335938 274.085938 790.707031 273.210938 791.152344 272.363281 C 791.59375 271.515625 792.105469 270.710938 792.679688 269.945312 C 793.253906 269.179688 793.886719 268.46875 794.574219 267.804688 C 795.265625 267.144531 796.007812 266.542969 796.792969 266.003906 L 894.308594 195.59375 L 773.734375 195.59375 C 772.8125 195.59375 771.898438 195.519531 770.988281 195.375 C 770.074219 195.230469 769.183594 195.015625 768.304688 194.730469 C 767.425781 194.445312 766.578125 194.09375 765.757812 193.675781 C 764.933594 193.257812 764.152344 192.777344 763.40625 192.234375 C 762.660156 191.691406 761.960938 191.09375 761.308594 190.445312 C 760.65625 189.792969 760.058594 189.09375 759.515625 188.347656 C 758.972656 187.601562 758.492188 186.816406 758.070312 185.996094 C 757.652344 185.175781 757.300781 184.324219 757.015625 183.449219 L 719.699219 68.683594 L 682.382812 183.449219 C 682.097656 184.324219 681.742188 185.175781 681.324219 185.996094 C 680.90625 186.816406 680.421875 187.601562 679.882812 188.347656 C 679.339844 189.09375 678.742188 189.792969 678.089844 190.445312 C 677.4375 191.09375 676.738281 191.691406 675.992188 192.234375 C 675.246094 192.777344 674.460938 193.257812 673.640625 193.675781 C 672.816406 194.09375 671.96875 194.445312 671.089844 194.730469 C 670.214844 195.015625 669.320312 195.230469 668.410156 195.375 C 667.5 195.519531 666.582031 195.59375 665.660156 195.59375 L 545.085938 195.59375 L 642.601562 266.003906 C 643.390625 266.542969 644.128906 267.144531 644.820312 267.804688 C 645.511719 268.46875 646.144531 269.179688 646.71875 269.945312 C 647.292969 270.710938 647.800781 271.515625 648.242188 272.363281 C 648.6875 273.210938 649.058594 274.085938 649.359375 274.996094 C 649.660156 275.902344 649.882812 276.832031 650.03125 277.773438 C 650.179688 278.71875 650.253906 279.667969 650.246094 280.625 C 650.242188 281.582031 650.15625 282.53125 649.996094 283.472656 C 649.835938 284.417969 649.601562 285.339844 649.289062 286.246094 Z M 649.289062 286.246094 " fill-opacity="1" fill-rule="nonzero"/></g><path fill="#ffffff" d="M 561.28125 618.042969 L 878.117188 618.042969 C 878.691406 618.042969 879.265625 618.015625 879.839844 617.957031 C 880.414062 617.902344 880.984375 617.816406 881.550781 617.703125 C 882.113281 617.589844 882.671875 617.453125 883.226562 617.285156 C 883.777344 617.117188 884.320312 616.921875 884.851562 616.703125 C 885.382812 616.480469 885.90625 616.234375 886.414062 615.964844 C 886.921875 615.691406 887.414062 615.394531 887.894531 615.074219 C 888.375 614.753906 888.835938 614.414062 889.28125 614.046875 C 889.726562 613.679688 890.15625 613.292969 890.5625 612.886719 C 890.96875 612.480469 891.355469 612.050781 891.722656 611.605469 C 892.085938 611.160156 892.429688 610.699219 892.75 610.21875 C 893.070312 609.738281 893.367188 609.246094 893.640625 608.738281 C 893.910156 608.230469 894.15625 607.707031 894.378906 607.175781 C 894.597656 606.644531 894.792969 606.101562 894.960938 605.550781 C 895.128906 605 895.265625 604.441406 895.378906 603.875 C 895.492188 603.308594 895.578125 602.738281 895.632812 602.164062 C 895.6875 601.589844 895.71875 601.015625 895.71875 600.441406 L 895.71875 565.234375 L 543.679688 565.234375 L 543.679688 600.441406 C 543.679688 601.015625 543.707031 601.589844 543.761719 602.164062 C 543.820312 602.738281 543.902344 603.308594 544.015625 603.875 C 544.128906 604.441406 544.269531 605 544.4375 605.550781 C 544.601562 606.101562 544.796875 606.644531 545.019531 607.175781 C 545.238281 607.707031 545.484375 608.230469 545.757812 608.738281 C 546.027344 609.246094 546.324219 609.738281 546.644531 610.21875 C 546.964844 610.699219 547.308594 611.160156 547.671875 611.605469 C 548.039062 612.050781 548.425781 612.480469 548.832031 612.886719 C 549.242188 613.292969 549.667969 613.679688 550.113281 614.046875 C 550.558594 614.414062 551.023438 614.753906 551.5 615.074219 C 551.980469 615.394531 552.472656 615.691406 552.984375 615.964844 C 553.492188 616.234375 554.011719 616.480469 554.542969 616.703125 C 555.078125 616.921875 555.617188 617.117188 556.171875 617.285156 C 556.722656 617.453125 557.28125 617.589844 557.847656 617.703125 C 558.410156 617.816406 558.980469 617.902344 559.554688 617.957031 C 560.128906 618.015625 560.703125 618.042969 561.28125 618.042969 Z M 561.28125 618.042969 " fill-opacity="1" fill-rule="nonzero"/><g clip-path="url(#5093a14615)"><path fill="#ffffff" d="M 490.871094 670.847656 L 948.523438 670.847656 C 949.101562 670.847656 949.675781 670.875 950.25 670.933594 C 950.824219 670.988281 951.390625 671.074219 951.957031 671.1875 C 952.523438 671.296875 953.082031 671.4375 953.632812 671.605469 C 954.183594 671.773438 954.726562 671.96875 955.257812 672.1875 C 955.792969 672.410156 956.3125 672.65625 956.820312 672.925781 C 957.328125 673.199219 957.824219 673.496094 958.300781 673.816406 C 958.78125 674.136719 959.246094 674.476562 959.691406 674.84375 C 960.136719 675.210938 960.5625 675.597656 960.96875 676.003906 C 961.378906 676.410156 961.765625 676.835938 962.128906 677.285156 C 962.496094 677.730469 962.839844 678.191406 963.160156 678.671875 C 963.480469 679.148438 963.773438 679.644531 964.046875 680.152344 C 964.320312 680.660156 964.566406 681.179688 964.785156 681.714844 C 965.007812 682.246094 965.199219 682.789062 965.367188 683.339844 C 965.535156 683.890625 965.675781 684.449219 965.789062 685.015625 C 965.898438 685.582031 965.984375 686.152344 966.039062 686.726562 C 966.097656 687.296875 966.125 687.875 966.125 688.449219 L 966.125 723.652344 C 966.125 724.230469 966.097656 724.804688 966.039062 725.378906 C 965.984375 725.953125 965.898438 726.523438 965.789062 727.089844 C 965.675781 727.652344 965.535156 728.210938 965.367188 728.761719 C 965.199219 729.316406 965.007812 729.855469 964.785156 730.390625 C 964.566406 730.921875 964.320312 731.441406 964.046875 731.953125 C 963.773438 732.460938 963.480469 732.953125 963.160156 733.433594 C 962.839844 733.914062 962.496094 734.375 962.128906 734.820312 C 961.765625 735.265625 961.378906 735.691406 960.96875 736.101562 C 960.5625 736.507812 960.136719 736.894531 959.691406 737.261719 C 959.246094 737.625 958.78125 737.96875 958.300781 738.289062 C 957.824219 738.609375 957.328125 738.90625 956.820312 739.175781 C 956.3125 739.449219 955.792969 739.695312 955.257812 739.917969 C 954.726562 740.136719 954.183594 740.332031 953.632812 740.5 C 953.082031 740.664062 952.523438 740.804688 951.957031 740.917969 C 951.390625 741.03125 950.824219 741.113281 950.25 741.171875 C 949.675781 741.226562 949.101562 741.257812 948.523438 741.257812 L 490.871094 741.257812 C 490.296875 741.257812 489.71875 741.226562 489.148438 741.171875 C 488.574219 741.113281 488.003906 741.03125 487.4375 740.917969 C 486.871094 740.804688 486.3125 740.664062 485.761719 740.5 C 485.210938 740.332031 484.667969 740.136719 484.136719 739.917969 C 483.601562 739.695312 483.082031 739.449219 482.574219 739.175781 C 482.066406 738.90625 481.570312 738.609375 481.09375 738.289062 C 480.613281 737.96875 480.152344 737.625 479.707031 737.261719 C 479.261719 736.894531 478.832031 736.507812 478.425781 736.101562 C 478.019531 735.691406 477.632812 735.265625 477.265625 734.820312 C 476.898438 734.375 476.558594 733.914062 476.238281 733.433594 C 475.917969 732.953125 475.621094 732.460938 475.347656 731.953125 C 475.078125 731.441406 474.832031 730.921875 474.609375 730.390625 C 474.390625 729.855469 474.195312 729.316406 474.027344 728.761719 C 473.859375 728.210938 473.722656 727.652344 473.609375 727.089844 C 473.496094 726.523438 473.410156 725.953125 473.355469 725.378906 C 473.296875 724.804688 473.269531 724.230469 473.269531 723.652344 L 473.269531 688.449219 C 473.269531 687.875 473.296875 687.296875 473.355469 686.726562 C 473.410156 686.152344 473.496094 685.582031 473.609375 685.015625 C 473.722656 684.449219 473.859375 683.890625 474.027344 683.339844 C 474.195312 682.789062 474.390625 682.246094 474.609375 681.714844 C 474.832031 681.179688 475.078125 680.660156 475.347656 680.152344 C 475.621094 679.644531 475.917969 679.148438 476.238281 678.671875 C 476.558594 678.191406 476.898438 677.730469 477.265625 677.285156 C 477.632812 676.835938 478.019531 676.410156 478.425781 676.003906 C 478.832031 675.597656 479.261719 675.210938 479.707031 674.84375 C 480.152344 674.476562 480.613281 674.136719 481.09375 673.816406 C 481.570312 673.496094 482.066406 673.199219 482.574219 672.925781 C 483.082031 672.65625 483.601562 672.410156 484.136719 672.1875 C 484.667969 671.96875 485.210938 671.773438 485.761719 671.605469 C 486.3125 671.4375 486.871094 671.296875 487.4375 671.1875 C 488.003906 671.074219 488.574219 670.988281 489.148438 670.933594 C 489.71875 670.875 490.296875 670.847656 490.871094 670.847656 Z M 490.871094 670.847656 " fill-opacity="1" fill-rule="nonzero"/></g></svg>